<svg width="14" height="14" viewBox="0 0 14 14" fill="none" xmlns="http://www.w3.org/2000/svg">
<path d="M11.817 4.08008C12.0614 3.91903 12.3932 3.94588 12.608 4.16113C12.8533 4.40706 12.8529 4.80539 12.607 5.05078L8.06309 9.58496C7.77007 9.87797 7.38491 10.0243 7.00059 10.0244C6.61587 10.0244 6.22958 9.87836 5.93613 9.58496L1.39317 5.05078C1.14724 4.80536 1.1468 4.40707 1.39219 4.16113L1.49082 4.08008C1.73483 3.91871 2.06667 3.94547 2.28184 4.16016L6.82578 8.69434L6.86485 8.72656C6.9603 8.78922 7.08984 8.77853 7.17344 8.69531H7.17442L11.7184 4.16016L11.817 4.08008Z" fill="white" stroke="white" stroke-width="0.383226"/>
</svg>
